<?xml version="1.0" standalone="no"?>
<!DOCTYPE svg PUBLIC "-//W3C//DTD SVG 1.1//EN" "http://www.w3.org/Graphics/SVG/1.1/DTD/svg11.dtd"><svg class="icon"
    width="200px" height="200.00px" viewBox="0 0 1024 1024" version="1.1" xmlns="http://www.w3.org/2000/svg">
    <path
        d="M856.32 619.9296c0 185.6-243.9168 280.9856-298.0352 299.8272-6.912 2.4064-14.4384 2.4576-21.4016 0.2048-54.016-17.5104-291.8912-105.728-291.8912-300.032V347.6992c0-14.2848 9.0112-26.9824 22.4768-31.6416 52.0192-18.0736 182.1184-64.8704 259.0208-106.5472a33.3312 33.3312 0 0 1 31.6416-0.2048c73.3184 39.0144 218.7776 88.4224 275.1488 106.9568 13.7728 4.5056 23.04 17.3568 23.04 31.8464v271.8208z"
        fill="#56E5BE" />
    <path
        d="M856.32 646.1952c0 169.4208-222.6688 256.512-272.0768 273.7152-6.2976 2.2016-13.1584 2.2528-19.5072 0.1536-49.3056-16.0256-266.4448-96.512-266.4448-273.92V397.6704c0-13.056 8.2432-24.6272 20.5312-28.928 47.5136-16.4864 166.2464-59.2384 236.4416-97.28 9.0112-4.864 19.8144-5.0176 28.8768-0.2048 66.9184 35.6352 199.7312 80.7424 251.1872 97.6384 12.544 4.1472 20.992 15.872 20.992 29.0816v248.2176z"
        fill="#50DDB8" />
    <path
        d="M856.32 672.256c0 153.3952-201.5744 232.2432-246.3232 247.8592-5.7344 1.9968-11.9296 2.048-17.664 0.1536-44.6464-14.4896-241.2544-87.3984-241.2544-248.0128V447.232c0-11.776 7.424-22.3232 18.5856-26.1632 43.008-14.9504 150.528-53.6064 214.1184-88.064a27.6992 27.6992 0 0 1 26.1632-0.1536c60.5696 32.256 180.8384 73.1136 227.4304 88.4224 11.3664 3.7376 19.0464 14.336 19.0464 26.3168v224.6656z"
        fill="#42D3AD" />
    <path
        d="M502.1184 952.32c-7.2192 0-14.4896-1.1264-21.4528-3.3792-33.536-10.9056-120.1152-42.4448-199.2192-100.4032-102.4512-75.1104-156.6208-169.4208-156.6208-272.7424V263.7312c0-29.44 18.6368-55.6544 46.4384-65.3312 59.2384-20.5824 206.2848-73.472 292.352-120.1152 20.48-11.1104 44.9024-11.2128 65.3312-0.3584 81.5616 43.4176 244.3264 98.7648 310.528 120.5248a69.0176 69.0176 0 0 1 47.5136 65.6896v311.6032c0 100.5568-53.8624 190.8224-160.1536 268.3392-80.4352 58.6752-168.0896 92.5184-202.0864 104.3968-7.2192 2.56-14.8992 3.84-22.6304 3.84zM496.64 131.328c-1.28 0-2.56 0.3072-3.7376 0.9728-90.0608 48.8448-240.8448 103.0656-301.4656 124.16-3.072 1.0752-5.12 3.9936-5.12 7.2704v312.064c0 202.8032 261.0176 297.728 313.344 314.7264 1.6384 0.5632 3.3792 0.5632 4.9152 0 53.6064-18.688 321.024-121.7536 321.024-314.7264V264.192c0-3.328-2.0992-6.2976-5.2736-7.3216-67.6864-22.272-234.4448-79.0016-320.2048-124.672-1.0752-0.5632-2.2528-0.8704-3.4816-0.8704z"
        fill="#2E3138" />
    <path
        d="M474.0096 633.7024c-12.288 0-24.2176-5.0176-32.8192-13.824l-100.7616-103.168a30.6688 30.6688 0 0 1 0.512-43.4176 30.6688 30.6688 0 0 1 43.4176 0.512l89.2416 91.392 148.8384-161.9456a30.7456 30.7456 0 0 1 43.4176-1.8432c12.4928 11.4688 13.312 30.9248 1.8432 43.4176l-160 174.08a45.8752 45.8752 0 0 1-33.0752 14.7968h-0.6144z"
        fill="#2E3138" /></svg>