<?xml version="1.0" standalone="no"?>
<!DOCTYPE svg PUBLIC "-//W3C//DTD SVG 1.1//EN" "http://www.w3.org/Graphics/SVG/1.1/DTD/svg11.dtd"><svg class="icon"
    width="200px" height="200.00px" viewBox="0 0 1024 1024" version="1.1" xmlns="http://www.w3.org/2000/svg">
    <path d="M219.5456 786.3296a336.896 101.12 0 1 0 673.792 0 336.896 101.12 0 1 0-673.792 0Z" fill="#56E5BE" />
    <path d="M296.6016 800.3072a298.3424 87.1424 0 1 0 596.6848 0 298.3424 87.1424 0 1 0-596.6848 0Z" fill="#50DDB8" />
    <path d="M384.3584 813.1072a254.464 74.3424 0 1 0 508.928 0 254.464 74.3424 0 1 0-508.928 0Z" fill="#42D3AD" />
    <path
        d="M789.8112 431.616c0-129.8944-105.3184-235.2128-235.2128-235.2128S319.4368 301.7216 319.4368 431.616c0 120.3712 136.4992 252.672 217.1904 306.4832 10.752 7.168 24.832 7.0144 35.4304-0.4608 79.7696-55.9104 217.7536-185.4976 217.7536-306.0224z"
        fill="#56E5BE" />
    <path
        d="M789.1456 445.4912c-8.192-109.9776-99.9424-196.6592-212.0192-196.6592-117.4528 0-212.6848 95.232-212.6848 212.6848 0 108.8512 123.4432 228.4544 196.4032 277.1456 1.4848 0.9728 3.072 1.792 4.7104 2.4576 2.2528-0.8704 4.4544-1.9968 6.5024-3.4304 76.6976-53.8624 207.2064-175.7184 217.088-292.1984z"
        fill="#50DDB8" />
    <path
        d="M579.6352 732.2624c73.3696-53.2992 187.136-161.792 207.0528-268.9024-15.8208-86.6304-91.648-152.32-182.8352-152.32-102.656 0-185.9072 83.2512-185.9072 185.9072 0.0512 90.368 97.28 189.1328 161.6896 235.3152z"
        fill="#42D3AD" />
    <path
        d="M512.256 518.656c-72.448 0-131.3792-58.9312-131.3792-131.3792s58.9312-131.3792 131.3792-131.3792 131.3792 58.9312 131.3792 131.3792-58.9824 131.3792-131.3792 131.3792z m0-201.2672c-38.5536 0-69.9392 31.3856-69.9392 69.9392s31.3856 69.9392 69.9392 69.9392 69.9392-31.3856 69.9392-69.9392-31.3856-69.9392-69.9392-69.9392z"
        fill="#2E3138" />
    <path
        d="M511.5904 766.1568a65.536 65.536 0 0 1-36.4544-11.1104c-102.9632-68.6592-256.1536-223.2832-256.1536-367.7184 0-161.7408 131.584-293.2736 293.2736-293.2736s293.2736 131.584 293.2736 293.2736c0 147.6608-161.024 300.032-256.1536 366.848a65.97632 65.97632 0 0 1-37.7856 11.9808z m0.6656-610.7136c-127.8464 0-231.8336 103.9872-231.8336 231.8336 0 113.152 133.7856 253.2352 228.8128 316.6208 1.4848 0.9728 3.3792 0.9728 4.864-0.0512 79.5648-55.8592 230.0416-193.8944 230.0416-316.5696-0.0512-127.8464-104.0896-231.8336-231.8848-231.8336z"
        fill="#2E3138" />
    <path
        d="M513.1776 915.9168c-108.1856 0-210.2272-11.8272-287.4368-33.3312-91.648-25.5488-138.0864-61.6448-138.0864-107.3664 0-67.9424 104.448-102.8096 192.0512-120.0128a30.75584 30.75584 0 0 1 36.096 24.2176 30.75584 30.75584 0 0 1-24.2176 36.096c-117.7088 23.1936-142.4896 54.528-142.4896 59.7504 0 3.6352 16.1792 26.7264 93.184 48.1792 71.936 20.0704 168.192 31.0784 270.9504 31.0784s198.9632-11.0592 270.9504-31.0784c76.9536-21.4528 93.184-44.544 93.184-48.1792 0-8.704-37.888-40.8064-153.9072-61.9008-16.6912-3.0208-27.7504-19.0464-24.7296-35.7376 3.0208-16.6912 19.0464-27.6992 35.7376-24.7296 93.2352 16.9472 204.3392 51.968 204.3392 122.368 0 45.7216-46.4896 81.8176-138.0864 107.3664-77.2608 21.4528-179.3536 33.28-287.5392 33.28z"
        fill="#2E3138" /></svg>