<?xml version="1.0" standalone="no"?>
<!DOCTYPE svg PUBLIC "-//W3C//DTD SVG 1.1//EN" "http://www.w3.org/Graphics/SVG/1.1/DTD/svg11.dtd"><svg class="icon"
    width="200px" height="200.00px" viewBox="0 0 1024 1024" version="1.1" xmlns="http://www.w3.org/2000/svg">
    <path
        d="M805.3248 741.632H325.1712c-55.9104 0-101.2224-45.312-101.2224-101.2224V330.9568c0-55.9104 45.312-101.2224 101.2224-101.2224h480.1536c55.9104 0 101.2224 45.312 101.2224 101.2224v309.4528c0 55.9104-45.312 101.2224-101.2224 101.2224z"
        fill="#56E5BE" />
    <path
        d="M812.5952 741.632H374.4768c-51.8656 0-93.952-42.0864-93.952-93.952v-281.6c0-51.8656 42.0864-93.952 93.952-93.952h438.1184c51.8656 0 93.952 42.0864 93.952 93.952v281.5488c0 51.9168-42.0864 94.0032-93.952 94.0032z"
        fill="#50DDB8" />
    <path
        d="M825.7536 741.632H418.3552c-44.5952 0-80.7936-36.1472-80.7936-80.7936V395.7248c0-44.5952 36.1472-80.7936 80.7936-80.7936h407.3984c44.5952 0 80.7936 36.1472 80.7936 80.7936v265.1136c0 44.5952-36.1984 80.7936-80.7936 80.7936z"
        fill="#42D3AD" />
    <path
        d="M794.5728 772.352H235.9808c-78.6944 0-142.6944-64-142.6944-142.6944V250.4704c0-78.6944 64-142.6944 142.6944-142.6944h558.592c78.6944 0 142.6944 64 142.6944 142.6944v379.1872c-0.0512 78.6944-64.0512 142.6944-142.6944 142.6944zM235.9808 169.216c-44.8 0-81.2544 36.4544-81.2544 81.2544v379.1872c0 44.8 36.4544 81.2544 81.2544 81.2544h558.592c44.8 0 81.2544-36.4544 81.2544-81.2544V250.4704c0-44.8-36.4544-81.2544-81.2544-81.2544H235.9808z"
        fill="#2E3138" />
    <path
        d="M323.584 572.0064c-16.9472 0-30.72-13.7728-30.72-30.72V448c0-16.9472 13.7728-30.72 30.72-30.72s30.72 13.7728 30.72 30.72v93.2864c0 16.9472-13.7216 30.72-30.72 30.72zM697.9072 572.0064c-16.9472 0-30.72-13.7728-30.72-30.72V391.9872c0-16.9472 13.7728-30.72 30.72-30.72s30.72 13.7728 30.72 30.72v149.248c0 16.9984-13.7728 30.7712-30.72 30.7712zM510.72 572.0064c-16.9472 0-30.72-13.7728-30.72-30.72V322.4576c0-16.9472 13.7728-30.72 30.72-30.72s30.72 13.7728 30.72 30.72v218.8288c0 16.9472-13.7216 30.72-30.72 30.72zM709.1712 906.496h-390.656c-16.9472 0-30.72-13.7728-30.72-30.72s13.7728-30.72 30.72-30.72h390.7072c16.9472 0 30.72 13.7728 30.72 30.72s-13.7728 30.72-30.7712 30.72z"
        fill="#2E3138" /></svg>