<?xml version="1.0" standalone="no"?>
<!DOCTYPE svg PUBLIC "-//W3C//DTD SVG 1.1//EN" "http://www.w3.org/Graphics/SVG/1.1/DTD/svg11.dtd"><svg class="icon"
    width="200px" height="200.00px" viewBox="0 0 1024 1024" version="1.1" xmlns="http://www.w3.org/2000/svg">
    <path d="M576.6656 561.0496m-354.9696 0a354.9696 354.9696 0 1 0 709.9392 0 354.9696 354.9696 0 1 0-709.9392 0Z"
        fill="#56E5BE" />
    <path d="M612.3008 596.736m-319.2832 0a319.2832 319.2832 0 1 0 638.5664 0 319.2832 319.2832 0 1 0-638.5664 0Z"
        fill="#50DDB8" />
    <path d="M648.7552 622.7456m-277.6064 0a277.6064 277.6064 0 1 0 555.2128 0 277.6064 277.6064 0 1 0-555.2128 0Z"
        fill="#42D3AD" />
    <path
        d="M512 921.0368c-227.3792 0-412.3648-184.9856-412.3648-412.3648S284.6208 96.3584 512 96.3584s412.3648 184.9856 412.3648 412.3648-184.9856 412.3136-412.3648 412.3136z m0-763.2384c-193.4848 0-350.9248 157.44-350.9248 350.9248S318.5152 859.648 512 859.648s350.9248-157.44 350.9248-350.9248S705.4848 157.7984 512 157.7984z"
        fill="#2E3138" />
    <path
        d="M556.4416 498.3808l76.4416-76.4416a30.72 30.72 0 0 0 0-43.4176 30.72 30.72 0 0 0-43.4176 0L513.024 454.912 436.5824 378.5216a30.72 30.72 0 0 0-43.4176 0 30.72 30.72 0 0 0 0 43.4176l76.4416 76.4416-76.4416 76.4416a30.72 30.72 0 0 0 21.7088 52.4288c7.8336 0 15.7184-3.0208 21.7088-9.0112l76.4416-76.4416 76.4416 76.4416a30.67392 30.67392 0 0 0 43.4176 0 30.72 30.72 0 0 0 0-43.4176l-76.4416-76.4416z"
        fill="#2E3138" /></svg>