<?xml version="1.0" standalone="no"?>
<!DOCTYPE svg PUBLIC "-//W3C//DTD SVG 1.1//EN" "http://www.w3.org/Graphics/SVG/1.1/DTD/svg11.dtd"><svg class="icon"
    width="200px" height="200.00px" viewBox="0 0 1024 1024" version="1.1" xmlns="http://www.w3.org/2000/svg">
    <path
        d="M792.2688 880.4352H321.1776c-52.48 0-94.976-42.5472-94.976-94.976V311.2448c0-52.48 42.5472-94.976 94.976-94.976h471.0912c52.48 0 94.976 42.5472 94.976 94.976v474.1632c0 52.48-42.496 95.0272-94.976 95.0272z"
        fill="#56E5BE" />
    <path
        d="M792.2688 880.4352H374.6304c-52.48 0-94.976-42.5472-94.976-94.976V364.9536c0-52.48 42.5472-94.976 94.976-94.976h417.6384c52.48 0 94.976 42.5472 94.976 94.976v420.4544c0 52.48-42.496 95.0272-94.976 95.0272z"
        fill="#50DDB8" />
    <path
        d="M792.2688 880.4352H434.5856c-52.48 0-94.976-42.5472-94.976-94.976V425.1648c0-52.48 42.5472-94.976 94.976-94.976h357.7344c52.48 0 94.976 42.5472 94.976 94.976v360.2432c-0.0512 52.48-42.5472 95.0272-95.0272 95.0272z"
        fill="#42D3AD" />
    <path
        d="M139.9296 416.6144c-16.9472 0-30.72-13.7728-30.72-30.72v-163.84c0-68.352 55.6032-123.9552 123.9552-123.9552h161.8432c16.9472 0 30.72 13.7728 30.72 30.72s-13.7728 30.72-30.72 30.72H233.1648c-34.4576 0-62.5152 28.0576-62.5152 62.5152v163.84c0 16.9472-13.7728 30.72-30.72 30.72zM887.1936 416.6144c-16.9472 0-30.72-13.7728-30.72-30.72v-163.84c0-34.4576-28.0576-62.5152-62.5152-62.5152h-161.8432c-16.9472 0-30.72-13.7728-30.72-30.72s13.7728-30.72 30.72-30.72h161.8432c68.352 0 123.9552 55.6032 123.9552 123.9552v163.84c0 16.9472-13.7728 30.72-30.72 30.72zM395.008 911.36H233.1648c-68.352 0-123.9552-55.6032-123.9552-123.9552v-163.84c0-16.9472 13.7728-30.72 30.72-30.72s30.72 13.7728 30.72 30.72v163.84c0 34.4576 28.0576 62.5152 62.5152 62.5152h161.8432c16.9472 0 30.72 13.7728 30.72 30.72s-13.7728 30.72-30.72 30.72zM793.9072 911.36h-161.8432c-16.9472 0-30.72-13.7728-30.72-30.72s13.7728-30.72 30.72-30.72h161.8432c34.4576 0 62.5152-28.0576 62.5152-62.5152v-163.84c0-16.9472 13.7728-30.72 30.72-30.72s30.72 13.7728 30.72 30.72v163.84c0.0512 68.352-55.6032 123.9552-123.9552 123.9552zM737.2288 539.4944H293.2224c-16.9472 0-30.72-13.7728-30.72-30.72s13.7728-30.72 30.72-30.72h444.0064c16.9472 0 30.72 13.7728 30.72 30.72s-13.7216 30.72-30.72 30.72z"
        fill="#2E3138" /></svg>