<?xml version="1.0" standalone="no"?>
<!DOCTYPE svg PUBLIC "-//W3C//DTD SVG 1.1//EN" "http://www.w3.org/Graphics/SVG/1.1/DTD/svg11.dtd"><svg class="icon"
    width="200px" height="200.00px" viewBox="0 0 1024 1024" version="1.1" xmlns="http://www.w3.org/2000/svg">
    <path
        d="M810.0864 210.7904H261.6832c-52.9408 0-76.5952 66.5088-35.5328 99.8912l204.7488 166.5536c2.4576 1.9968 3.8912 5.0176 3.8912 8.192V803.84c0 13.056 6.9632 25.088 18.2784 31.5392l113.5104 64.9216c31.3344 17.92 70.3488-4.7104 70.3488-40.8064V485.4784c0-3.1744 1.4336-6.1952 3.8912-8.192l204.7488-166.5536c41.1136-33.4336 17.5104-99.9424-35.4816-99.9424z"
        fill="#56E5BE" />
    <path
        d="M845.6192 310.7328c7.168-5.8368 12.3392-12.6976 15.7696-20.0192-7.936-17.0496-24.7808-30.0544-47.3088-30.0544H303.8208c-40.704 0-62.7712 42.24-47.616 74.4448l174.7456 142.1824c2.4576 1.9968 3.8912 5.0176 3.8912 8.192v1.5872l26.4192 21.504c2.304 1.8944 3.6352 4.6592 3.6352 7.6288v294.7584a33.792 33.792 0 0 0 16.9984 29.3376l105.6256 60.3648c3.9424 2.2528 8.0384 3.7888 12.1344 4.7104 20.48-4.4032 37.3248-22.2208 37.3248-45.9264V485.4784c0-3.1744 1.4336-6.1952 3.8912-8.192l204.7488-166.5536z"
        fill="#50DDB8" />
    <path
        d="M818.432 316.2112H350.72c-32.8704 0-52.48 30.0544-47.2064 57.3952l127.3856 103.6288c2.4576 1.9968 3.8912 5.0176 3.8912 8.192v9.0112l60.2112 48.9984c2.0992 1.6896 3.328 4.3008 3.328 7.0144v268.4416a30.8736 30.8736 0 0 0 15.616 26.88L610.7648 901.12l0.3072 0.1536c14.8992-7.5264 25.856-22.784 25.856-41.8816V485.4784c0-3.1744 1.4336-6.1952 3.8912-8.192l194.3552-158.1056c-5.0688-1.8944-10.6496-2.9696-16.7424-2.9696z"
        fill="#42D3AD" />
    <path
        d="M559.9744 937.3184c-14.1312 0-28.2112-3.6864-41.1136-11.0592l-125.8496-71.936a71.12704 71.12704 0 0 1-35.7376-61.6448V446.6176L137.3696 267.7248c-30.976-25.1904-42.3424-65.792-28.9792-103.3728C121.7536 126.72 156.2112 102.4 196.096 102.4h607.8976c39.936 0 74.3424 24.32 87.7056 61.9008s1.9968 78.1824-28.9792 103.3728l-219.9552 178.944v407.7056c0 29.8496-15.4112 56.6272-41.2672 71.6288a82.0736 82.0736 0 0 1-41.5232 11.3664zM196.096 163.84c-20.736 0-28.0576 16.128-29.7984 21.0432s-6.2464 22.0672 9.8304 35.1744l226.9184 184.6272a42.20928 42.20928 0 0 1 15.6672 32.9216v355.072c0 3.4304 1.8432 6.6048 4.8128 8.2944l125.8496 71.936c9.6256 5.5296 18.1248 1.792 21.3504-0.0512 3.2256-1.8432 10.6496-7.3728 10.6496-18.4832v-416.768c0-12.8512 5.6832-24.832 15.6672-32.9216l226.9184-184.6272c16.0768-13.056 11.6224-30.208 9.8304-35.1744S824.7296 163.84 803.9936 163.84H196.096z"
        fill="#2E3138" />
    <path
        d="M889.7536 527.7696h-175.7696c-16.9472 0-30.72-13.7728-30.72-30.72s13.7728-30.72 30.72-30.72h175.7696c16.9472 0 30.72 13.7728 30.72 30.72s-13.7728 30.72-30.72 30.72zM889.7536 652.2368h-175.7696c-16.9472 0-30.72-13.7728-30.72-30.72s13.7728-30.72 30.72-30.72h175.7696c16.9472 0 30.72 13.7728 30.72 30.72s-13.7728 30.72-30.72 30.72zM889.7536 773.6832h-175.7696c-16.9472 0-30.72-13.7728-30.72-30.72s13.7728-30.72 30.72-30.72h175.7696c16.9472 0 30.72 13.7728 30.72 30.72s-13.7728 30.72-30.72 30.72z"
        fill="#2E3138" /></svg>