<?xml version="1.0" standalone="no"?>
<!DOCTYPE svg PUBLIC "-//W3C//DTD SVG 1.1//EN" "http://www.w3.org/Graphics/SVG/1.1/DTD/svg11.dtd"><svg class="icon"
    width="200px" height="200.00px" viewBox="0 0 1024 1024" version="1.1" xmlns="http://www.w3.org/2000/svg">
    <path
        d="M706.304 910.1824H403.6096c-52.48 0-94.976-42.5472-94.976-94.976V363.776h492.6976v451.4304c-0.0512 52.48-42.5984 94.976-95.0272 94.976z"
        fill="#56E5BE" />
    <path
        d="M706.304 910.1824H465.408c-52.48 0-94.976-42.5472-94.976-94.976V424.3968h430.848v390.8096c0 52.48-42.5472 94.976-94.976 94.976z"
        fill="#50DDB8" />
    <path
        d="M706.304 910.1824h-176.7936c-52.48 0-94.976-42.5472-94.976-94.976V483.0208h366.7968v332.1856c-0.0512 52.48-42.5984 94.976-95.0272 94.976z"
        fill="#42D3AD" />
    <path
        d="M913.2544 242.5344h-205.6192l-19.1488-117.0944c-3.6352-25.9072-25.9584-45.3632-52.1728-45.3632H386.8672c-26.2144 0-48.5376 19.456-52.1728 45.3632l-19.1488 117.0944H112.128c-16.9472 0-30.72 13.7728-30.72 30.72s13.7728 30.72 30.72 30.72h84.1216v511.232c0 69.3248 56.3712 125.696 125.696 125.696h384.3072c69.3248 0 125.696-56.3712 125.696-125.696V303.9744h81.2544c16.9472 0 30.72-13.7728 30.72-30.72s-13.6704-30.72-30.6688-30.72zM394.2912 141.5168h234.5472l16.4352 100.4544H377.856l16.4352-100.4544z m376.2688 673.6896c0 35.4304-28.8256 64.256-64.256 64.256H321.9968c-35.4304 0-64.256-28.8256-64.256-64.256V303.9744H770.56v511.232z"
        fill="#2E3138" />
    <path
        d="M428.6976 770.6624c-16.9472 0-30.72-13.7728-30.72-30.72V447.9488c0-16.9472 13.7728-30.72 30.72-30.72s30.72 13.7728 30.72 30.72v291.9936c0 16.9472-13.7728 30.72-30.72 30.72zM602.4192 770.6624c-16.9472 0-30.72-13.7728-30.72-30.72V447.9488c0-16.9472 13.7728-30.72 30.72-30.72s30.72 13.7728 30.72 30.72v291.9936c0 16.9472-13.7728 30.72-30.72 30.72z"
        fill="#2E3138" /></svg>