<?xml version="1.0" standalone="no"?>
<!DOCTYPE svg PUBLIC "-//W3C//DTD SVG 1.1//EN" "http://www.w3.org/Graphics/SVG/1.1/DTD/svg11.dtd"><svg class="icon"
    width="200px" height="200.00px" viewBox="0 0 1024 1024" version="1.1" xmlns="http://www.w3.org/2000/svg">
    <path
        d="M756.1728 268.4928l144.3328 244.8384c12.2368 20.736 12.4416 46.4384 0.6144 67.4304l-139.8784 247.3984c-11.8784 20.992-33.9968 33.9968-58.0608 34.2528l-284.2112 2.56c-24.064 0.2048-46.4384-12.4416-58.6752-33.1776l-144.3328-244.8384a67.49696 67.49696 0 0 1-0.6144-67.4304l139.8784-247.3984c11.8784-20.992 33.9968-33.9968 58.0608-34.2528l284.2112-2.56c24.064-0.2048 46.4384 12.4416 58.6752 33.1776z"
        fill="#56E5BE" />
    <path
        d="M764.0064 323.9936l126.5152 214.6304c12.2368 20.736 12.4416 46.4384 0.6144 67.4304l-122.624 216.8832c-11.8784 20.992-33.9968 33.9968-58.0608 34.2528l-249.1392 2.2528c-24.064 0.2048-46.4384-12.4416-58.6752-33.1776l-126.5152-214.6304a67.49696 67.49696 0 0 1-0.6144-67.4304l122.624-216.8832c11.8784-20.992 33.9968-33.9968 58.0608-34.2528l249.1392-2.2528c24.1152-0.2048 46.4384 12.4416 58.6752 33.1776z"
        fill="#50DDB8" />
    <path
        d="M767.8464 388.2496l107.6224 182.5792c12.2368 20.736 12.4416 46.4384 0.6144 67.4304l-104.2944 184.4736c-11.8784 20.992-33.9968 33.9968-58.0608 34.2528l-211.968 1.8944c-24.064 0.2048-46.4384-12.4416-58.6752-33.1776l-107.6224-182.5792a67.49696 67.49696 0 0 1-0.6144-67.4304l104.2944-184.4736c11.8784-20.992 33.9968-33.9968 58.0608-34.2528l211.9168-1.8944c24.1152-0.2048 46.4896 12.4416 58.7264 33.1776z"
        fill="#42D3AD" />
    <path
        d="M349.0304 896.3072c-34.6112 0-66.9696-18.432-84.5824-48.2816l-167.7824-284.672c-17.7664-30.1056-18.0736-67.7376-0.8704-98.1504l162.6112-287.6416c17.2032-30.4128 49.6128-49.5104 84.5312-49.8176l330.4448-2.9696h0.8704c34.6112 0 66.9696 18.432 84.5312 48.3328l167.7824 284.672c17.7664 30.1056 18.0736 67.7376 0.8704 98.1504l-162.6112 287.6416a98.42176 98.42176 0 0 1-84.5312 49.8176l-330.4448 2.9696c-0.256-0.0512-0.5632-0.0512-0.8192-0.0512z m325.2224-710.144h-0.3072l-330.4448 2.9696a36.72576 36.72576 0 0 0-31.5904 18.6368L149.248 495.4624a36.73088 36.73088 0 0 0 0.3584 36.7104l167.7824 284.672c6.656 11.264 18.688 18.0736 31.9488 18.0736l330.4448-2.9696a36.72576 36.72576 0 0 0 31.5904-18.6368l162.6112-287.6416a36.73088 36.73088 0 0 0-0.3584-36.7104l-167.7824-284.672a36.66944 36.66944 0 0 0-31.5904-18.1248z"
        fill="#2E3138" />
    <path
        d="M511.6416 646.5024c-75.008 0-135.9872-61.0304-135.9872-135.9872 0-75.008 61.0304-135.9872 135.9872-135.9872s135.9872 61.0304 135.9872 135.9872c0 75.008-61.0304 135.9872-135.9872 135.9872z m0-210.5344c-41.1136 0-74.5472 33.4336-74.5472 74.5472s33.4336 74.5472 74.5472 74.5472 74.5472-33.4336 74.5472-74.5472-33.4336-74.5472-74.5472-74.5472z"
        fill="#2E3138" /></svg>