<?xml version="1.0" standalone="no"?>
<!DOCTYPE svg PUBLIC "-//W3C//DTD SVG 1.1//EN" "http://www.w3.org/Graphics/SVG/1.1/DTD/svg11.dtd"><svg class="icon"
    width="200px" height="200.00px" viewBox="0 0 1024 1024" version="1.1" xmlns="http://www.w3.org/2000/svg">
    <path
        d="M619.9808 259.1744l69.12 140.032a50.7648 50.7648 0 0 0 38.2464 27.8016l154.5216 22.4768c41.6256 6.0416 58.2656 57.2416 28.16 86.6304L798.208 645.12a50.76992 50.76992 0 0 0-14.592 44.9536l26.368 153.9072c7.1168 41.472-36.4032 73.1136-73.6768 53.504l-138.1888-72.6528a50.74432 50.74432 0 0 0-47.2576 0L412.672 897.4848c-37.2736 19.6096-80.7936-12.032-73.6768-53.504l26.368-153.9072c2.816-16.4864-2.6112-33.28-14.592-44.9536l-111.8208-109.0048c-30.1568-29.3888-13.5168-80.5376 28.16-86.6304l154.5216-22.4768c16.5376-2.4064 30.8224-12.8 38.2464-27.8016l69.12-140.032c18.5344-37.7344 72.3456-37.7344 90.9824 0z"
        fill="#56E5BE" />
    <path
        d="M886.6304 499.5072l-137.472-19.968a45.11232 45.11232 0 0 1-33.9968-24.7296L653.6704 330.24c-16.5888-33.5872-64.4608-33.5872-80.9984 0L511.1808 454.8096a45.32224 45.32224 0 0 1-33.9968 24.7296l-137.472 19.968c-37.0688 5.376-51.8656 50.944-25.0368 77.056l99.4816 96.9728a45.21472 45.21472 0 0 1 13.0048 39.9872l-23.5008 136.9088c-3.0208 17.7664 4.4032 33.3824 16.5376 43.008l130.6624-68.6592a50.74432 50.74432 0 0 1 47.2576 0l7.8848 4.1472c9.5232-1.536 19.456-0.1024 28.2624 4.5568l122.9312 64.6144c3.9936 2.0992 8.0896 3.5328 12.1856 4.352 25.4464-4.9152 45.6704-29.2864 40.6528-58.5216l-26.368-153.9072c-2.816-16.4864 2.6112-33.28 14.592-44.9536l111.8208-109.0048c4.1984-4.096 7.3728-8.6016 9.8304-13.312-6.4512-11.8272-17.92-21.0432-33.28-23.2448z"
        fill="#50DDB8" />
    <path
        d="M809.9328 843.8272l-26.368-153.9072c-2.816-16.4864 2.6112-33.28 14.592-44.9536l97.0752-94.6176c-1.2288-0.3072-2.5088-0.6656-3.7888-0.8192l-120.4224-17.5104a39.66464 39.66464 0 0 1-29.7984-21.6576l-53.8624-109.1072c-14.5408-29.3888-56.4736-29.3888-70.9632 0l-53.8624 109.1072a39.66464 39.66464 0 0 1-29.7984 21.6576l-120.4224 17.5104c-32.4608 4.7104-45.4144 44.5952-21.9136 67.4816l87.1424 84.9408a39.5776 39.5776 0 0 1 11.3664 35.0208l-20.5824 119.9104c-0.6656 3.8912-0.7168 7.68-0.3584 11.3152l82.8416-43.5712a50.74432 50.74432 0 0 1 47.2576 0l34.2016 17.9712 1.1776-0.6144a39.64928 39.64928 0 0 1 36.8128 0l107.7248 56.6272c0.4608 0.256 0.9728 0.4096 1.4336 0.6144 20.3776-8.5504 34.8672-30.1056 30.5152-55.3984z"
        fill="#42D3AD" />
    <path
        d="M292.2496 933.9904c-18.7392 0-37.3248-5.888-53.1968-17.408-28.1088-20.4288-41.9328-54.4256-36.0448-88.6784l31.1296-181.6064a29.2352 29.2352 0 0 0-8.3968-25.856L93.7472 491.8272c-24.8832-24.2688-33.6896-59.8528-22.9376-92.928 10.752-33.0752 38.7584-56.6784 73.1648-61.696l182.3744-26.5216a29.34784 29.34784 0 0 0 22.016-15.9744l81.5616-165.2224c15.36-31.1808 46.5408-50.5344 81.3056-50.5344 34.7648 0 65.8944 19.3536 81.3056 50.5344l81.5616 165.2224a29.26592 29.26592 0 0 0 21.9648 15.9744l182.3744 26.5216c34.4064 5.0176 62.4128 28.6208 73.1648 61.696 10.752 33.0752 1.9456 68.6592-22.9376 92.928l-131.9424 128.6144a29.09696 29.09696 0 0 0-8.3968 25.856l31.1296 181.6064c5.888 34.2528-7.936 68.2496-36.0448 88.6784s-64.7168 23.04-95.4368 6.912l-163.1232-85.76a29.32736 29.32736 0 0 0-27.1872 0l-163.1232 85.76a91.17696 91.17696 0 0 1-42.2912 10.496z m218.9312-793.6c-11.3664 0-21.1456 6.0928-26.2144 16.2816L403.456 321.8944a90.624 90.624 0 0 1-68.2496 49.6128l-182.3744 26.5216c-11.264 1.6384-20.0704 9.0624-23.6032 19.8656-3.5328 10.8032-0.768 22.016 7.3728 29.952l131.9424 128.6144a90.624 90.624 0 0 1 26.0608 80.2304l-31.1296 181.6064c-1.9456 11.2128 2.4064 21.8624 11.6224 28.5696 9.216 6.656 20.6848 7.5264 30.7712 2.2016L469.0432 783.36a90.7264 90.7264 0 0 1 84.3776 0l163.1232 85.76c10.0352 5.2736 21.5552 4.4544 30.7712-2.2016 9.216-6.656 13.568-17.3568 11.6224-28.5696l-31.1296-181.6064c-5.0176-29.44 4.7104-59.392 26.0608-80.2304L885.76 447.7952c8.1408-7.936 10.9056-19.1488 7.3728-29.952-3.5328-10.8032-12.3392-18.2272-23.6032-19.8656l-182.3744-26.5216a90.624 90.624 0 0 1-68.2496-49.6128L537.3952 156.672c-5.0176-10.1888-14.7968-16.2816-26.2144-16.2816z"
        fill="#2E3138" />
    <path
        d="M511.232 723.6096c-33.6896 0-67.3792-12.8-93.0304-38.4512a30.72 30.72 0 0 1 0-43.4176 30.72 30.72 0 0 1 43.4176 0c27.3408 27.3408 71.8336 27.3408 99.1744 0a30.72 30.72 0 0 1 43.4176 0 30.72 30.72 0 0 1 0 43.4176c-25.6512 25.6-59.3408 38.4512-92.9792 38.4512z"
        fill="#2E3138" /></svg>