<?xml version="1.0" standalone="no"?>
<!DOCTYPE svg PUBLIC "-//W3C//DTD SVG 1.1//EN" "http://www.w3.org/Graphics/SVG/1.1/DTD/svg11.dtd"><svg class="icon"
    width="200px" height="200.00px" viewBox="0 0 1024 1024" version="1.1" xmlns="http://www.w3.org/2000/svg">
    <path
        d="M888.4224 722.0736l-95.3344-165.12V419.9936c0-128.512-104.192-232.704-232.704-232.704h-7.5776c-128.512 0-232.704 104.192-232.704 232.704v136.9088L224.768 722.0224c-15.5648 26.9312 3.8912 60.5696 34.9696 60.5696h593.7152c31.0784 0.0512 50.4832-33.5872 34.9696-60.5184z"
        fill="#56E5BE" />
    <path
        d="M888.9344 728.2688l-85.5552-148.1728V457.2672c0-115.3536-93.4912-208.8448-208.8448-208.8448h-6.8096C472.3712 248.4224 378.88 341.9136 378.88 457.2672v122.8288l-85.5552 148.1728c-13.9264 24.1664 3.4816 54.3744 31.3856 54.3744h532.7872c27.9552 0 45.4144-30.208 31.4368-54.3744z"
        fill="#50DDB8" />
    <path
        d="M889.5488 735.0784l-74.8544-129.6896v-107.52c0-100.9152-81.8176-182.784-182.784-182.784h-5.9392c-100.9152 0-182.784 81.8176-182.784 182.784v107.52l-74.8544 129.6896c-12.1856 21.1456 3.072 47.5648 27.4944 47.5648h466.2784c24.4224 0 39.68-26.4192 27.4432-47.5648z"
        fill="#42D3AD" />
    <path
        d="M914.2784 698.624l-103.936-180.0192v-146.944c0-162.3552-132.096-294.5024-294.5024-294.5024h-8.6016c-162.3552 0-294.5024 132.096-294.5024 294.5024v146.944l-103.936 180.0192c-13.824 23.9616-13.824 52.5312 0 76.4928s38.6048 38.2464 66.2528 38.2464H364.032c11.1616 74.0352 75.2128 131.0208 152.32 131.0208s141.1584-56.9344 152.32-131.0208h179.2512c27.648 0 52.4288-14.2848 66.2528-38.2464 13.9264-23.9616 13.9264-52.5312 0.1024-76.4928z m-397.8752 184.32c-43.1104 0-79.3088-29.6448-89.6-69.5808h179.2c-10.2912 39.936-46.4896 69.5808-89.6 69.5808z m344.6784-138.5472c-1.3312 2.2528-5.2224 7.5264-13.056 7.5264H175.104c-7.8336 0-11.7248-5.2736-13.056-7.5264-1.28-2.2528-3.9424-8.2432 0-15.0528l108.0832-187.1872c2.7136-4.6592 4.096-9.984 4.096-15.36V371.6096c0-128.512 104.5504-233.0624 233.0624-233.0624h8.6016c128.512 0 233.0624 104.5504 233.0624 233.0624v155.1872c0 5.376 1.4336 10.7008 4.096 15.36l108.0832 187.1872c3.84 6.8096 1.2288 12.8-0.0512 15.0528z"
        fill="#2E3138" /></svg>