<?xml version="1.0" standalone="no"?>
<!DOCTYPE svg PUBLIC "-//W3C//DTD SVG 1.1//EN" "http://www.w3.org/Graphics/SVG/1.1/DTD/svg11.dtd"><svg class="icon"
    width="200px" height="200.00px" viewBox="0 0 1024 1024" version="1.1" xmlns="http://www.w3.org/2000/svg">
    <path
        d="M643.9936 914.3808h-250.88C328.704 914.3808 276.48 860.8768 276.48 794.8288V317.5936c0-66.048 52.224-119.552 116.6848-119.552h325.888c64.4096 0 116.6848 53.504 116.6848 119.552v403.0976l-191.744 193.6896z"
        fill="#56E5BE" />
    <path
        d="M659.8656 914.3808H429.7728c-59.0848 0-107.008-50.1248-107.008-111.9232V355.6352c0-61.7984 47.9232-111.9232 107.008-111.9232h298.9056c59.0848 0 107.008 50.1248 107.008 111.9232v377.3952l-175.8208 181.3504z"
        fill="#50DDB8" />
    <path
        d="M636.1088 912.6912l-169.1136 1.6896c-53.6576 0-97.1776-46.4896-97.1776-103.7824V396.2368c0-57.344 43.52-103.7824 97.1776-103.7824h271.5136c53.6576 0 97.1776 46.4896 97.1776 103.7824l0.5632 328.7552-200.1408 187.6992z"
        fill="#42D3AD" />
    <path
        d="M689.5616 337.3056H339.5584c-16.9472 0-30.72-13.7728-30.72-30.72s13.7728-30.72 30.72-30.72h350.0032c16.9472 0 30.72 13.7728 30.72 30.72s-13.7728 30.72-30.72 30.72zM689.5616 516.5568H339.5584c-16.9472 0-30.72-13.7728-30.72-30.72s13.7728-30.72 30.72-30.72h350.0032c16.9472 0 30.72 13.7728 30.72 30.72s-13.7728 30.72-30.72 30.72zM498.1248 690.688H339.5584c-16.9472 0-30.72-13.7728-30.72-30.72s13.7728-30.72 30.72-30.72h158.5664c16.9472 0 30.72 13.7728 30.72 30.72s-13.7216 30.72-30.72 30.72z"
        fill="#2E3138" />
    <path
        d="M701.696 80.7936h-374.272c-90.8288 0-164.7104 73.8816-164.7104 164.7104v534.8864c0 90.8288 73.8816 164.7104 164.7104 164.7104h288.1536c8.0896 0 15.8208-3.1744 21.5552-8.8576l220.16-217.1392a30.85312 30.85312 0 0 0 9.1648-21.8624V245.5552c-0.0512-90.8288-73.9328-164.7616-164.7616-164.7616zM224.1024 780.3904V245.5552c0-56.9344 46.336-103.2704 103.2704-103.2704h374.272c56.9344 0 103.2704 46.336 103.2704 103.2704v420.3008h-113.8688c-61.6448 0-111.7696 50.1248-111.7696 111.7696v106.0864H327.424c-56.9856-0.0512-103.3216-46.336-103.3216-103.3216z m537.4464-53.1456l-120.7296 119.0912v-68.7616c0-27.7504 22.5792-50.3296 50.3296-50.3296h70.4z"
        fill="#2E3138" /></svg>