<?xml version="1.0" standalone="no"?>
<!DOCTYPE svg PUBLIC "-//W3C//DTD SVG 1.1//EN" "http://www.w3.org/Graphics/SVG/1.1/DTD/svg11.dtd"><svg class="icon"
    width="200px" height="200.00px" viewBox="0 0 1024 1024" version="1.1" xmlns="http://www.w3.org/2000/svg">
    <path d="M576.8704 555.6736m-361.6768 0a361.6768 361.6768 0 1 0 723.3536 0 361.6768 361.6768 0 1 0-723.3536 0Z"
        fill="#56E5BE" />
    <path d="M613.2224 592.0256m-325.3248 0a325.3248 325.3248 0 1 0 650.6496 0 325.3248 325.3248 0 1 0-650.6496 0Z"
        fill="#50DDB8" />
    <path d="M650.3936 618.5472m-282.88 0a282.88 282.88 0 1 0 565.76 0 282.88 282.88 0 1 0-565.76 0Z" fill="#42D3AD" />
    <path
        d="M510.976 921.9072c-231.3728 0-419.584-188.2112-419.584-419.584 0-231.3728 188.2112-419.584 419.584-419.584s419.584 188.2112 419.584 419.584c0.0512 231.3728-188.2112 419.584-419.584 419.584z m0-777.728c-197.4784 0-358.144 160.6656-358.144 358.144s160.6656 358.144 358.144 358.144 358.144-160.6656 358.144-358.144-160.6144-358.144-358.144-358.144z"
        fill="#2E3138" />
    <path
        d="M394.1376 575.0272c-16.9472 0-30.72-13.7728-30.72-30.72V460.288c0-16.9472 13.7728-30.72 30.72-30.72s30.72 13.7728 30.72 30.72v84.0192c0 16.9984-13.7728 30.72-30.72 30.72zM640.6656 583.424c-6.5536 0-13.2096-2.0992-18.7904-6.4512l-65.8944-51.0464a30.55616 30.55616 0 0 1-11.8784-24.32c0-9.5232 4.4032-18.4832 11.9296-24.2688l64.256-49.7152a30.6944 30.6944 0 0 1 43.1104 5.5296 30.6944 30.6944 0 0 1-5.5296 43.1104l-32.8704 25.3952 34.56 26.7776c13.4144 10.3936 15.872 29.696 5.4784 43.1104a31.0016 31.0016 0 0 1-24.3712 11.8784z"
        fill="#2E3138" /></svg>