<svg enable-background="new 0 0 64.1 60" viewBox="0 0 64.1 60" xmlns="http://www.w3.org/2000/svg" xmlns:xlink="http://www.w3.org/1999/xlink"><clipPath id="a"><path d="m978.8 443.1-279.6 279.7 279.6 279.7h-319.5l-119.9-119.9-159.8-159.8 279.7-279.7zm-319.5-479.4-519.3 519.4 159.8 159.8 679-679.1c0-.1-319.5-.1-319.5-.1z"/></clipPath><clipPath id="b"><path d="m978.8 443.1-279.6 279.7 279.6 279.7h-319.5l-119.9-119.9-159.8-159.8 279.7-279.7zm-319.5-479.4-519.3 519.4 159.8 159.8 679-679.1c0-.1-319.5-.1-319.5-.1z"/></clipPath><clipPath id="c"><path d="m978.8 443.1-279.6 279.7 279.6 279.7h-319.5l-119.9-119.9-159.8-159.8 279.7-279.7zm-319.5-479.4-519.3 519.4 159.8 159.8 679-679.1c0-.1-319.5-.1-319.5-.1z"/></clipPath><clipPath id="d"><path d="m978.8 443.1-279.6 279.7 279.6 279.7h-319.5l-119.9-119.9-159.8-159.8 279.7-279.7zm-319.5-479.4-519.3 519.4 159.8 159.8 679-679.1c0-.1-319.5-.1-319.5-.1z"/></clipPath><linearGradient id="e" gradientUnits="userSpaceOnUse" x1="-71797.257552" x2="-71797.257457" y1="-36456.093385" y2="-36456.09348000001"><stop offset="0" stop-color="#1a237e" stop-opacity=".4"/><stop offset="1" stop-color="#1a237e" stop-opacity="0"/></linearGradient><clipPath id="f"><path d="m978.8 443.1-279.6 279.7 279.6 279.7h-319.5l-119.9-119.9-159.8-159.8 279.7-279.7zm-319.5-479.4-519.3 519.4 159.8 159.8 679-679.1c0-.1-319.5-.1-319.5-.1z"/></clipPath><radialGradient id="g" cx="-71797.924841" cy="-36452.925571" gradientUnits="userSpaceOnUse" r=".000267"><stop offset="0" stop-color="#fff" stop-opacity=".1"/><stop offset="1" stop-color="#fff" stop-opacity="0"/></radialGradient><g transform="matrix(.03881911 0 0 .03881916 -.560501 8.162276)"><g clip-path="url(#a)"><path d="m539.4 882.6 439.4-439.5h-319.5l-279.6 279.7z" fill="#39cefd"/></g><path clip-path="url(#b)" d="m140 483.1 519.3-519.4h319.5l-679 679.1z" fill="#39cefd"/><path clip-path="url(#c)" d="m659.3 1002.4h319.5l-279.6-279.6-159.8 159.8z" fill="#03569b"/><path clip-path="url(#d)" d="m699.2 722.8-159.8 159.8 237-82.1z" fill="url(#e)"/><g clip-path="url(#f)"><path d="m379.7 722.7 159.8-159.8 159.8 159.8-159.8 159.9z" fill="#16b9fd"/></g><path d="m978.8 443.1-279.6 279.7 279.6 279.7h-319.5l-119.9-119.9-159.8-159.8 279.7-279.7zm201.1 39.2-519.3 519.3 159.8 159.8 679-679.1z" fill="url(#g)"/></g><g fill="#03569b"><path d="m26.7 45.5 20.2-20.2h12.4l-26.4 26.4z"/><path d="m26.9 42.7h8.7v8.7h-8.7z" transform="matrix(.7071 -.7071 .7071 .7071 -24.1099 35.9057)"/></g></svg>