<?xml version="1.0" encoding="utf-8"?>
<!-- Generator: Adobe Illustrator 25.2.1, SVG Export Plug-In . SVG Version: 6.00 Build 0)  -->
<svg version="1.1" id="图层_1" xmlns="http://www.w3.org/2000/svg" xmlns:xlink="http://www.w3.org/1999/xlink" x="0px" y="0px"
	 viewBox="0 0 204.2 60" enable-background="new 0 0 204.2 60" xml:space="preserve">
<g transform="matrix(.03881911 0 0 .03881916 -.560501 8.162276)">
	<g>
		<defs>
			<path id="SVGID_1_" d="M978.8,443.1L699.2,722.8l279.6,279.7H659.3L539.4,882.6L379.6,722.8l279.7-279.7L978.8,443.1z
				 M659.3-36.3L140,483.1l159.8,159.8l679-679.1C978.8-36.3,659.3-36.3,659.3-36.3z"/>
		</defs>
		<clipPath id="SVGID_2_">
			<use xlink:href="#SVGID_1_"  overflow="visible"/>
		</clipPath>
		<g clip-path="url(#SVGID_2_)">
			<path fill="#39CEFD" d="M539.4,882.6l439.4-439.5H659.3L379.7,722.8L539.4,882.6z"/>
		</g>
	</g>
	<g>
		<defs>
			<path id="SVGID_3_" d="M978.8,443.1L699.2,722.8l279.6,279.7H659.3L539.4,882.6L379.6,722.8l279.7-279.7L978.8,443.1z
				 M659.3-36.3L140,483.1l159.8,159.8l679-679.1C978.8-36.3,659.3-36.3,659.3-36.3z"/>
		</defs>
		<clipPath id="SVGID_4_">
			<use xlink:href="#SVGID_3_"  overflow="visible"/>
		</clipPath>
		<path clip-path="url(#SVGID_4_)" fill="#39CEFD" d="M140,483.1L659.3-36.3h319.5l-679,679.1L140,483.1z"/>
	</g>
	<g>
		<defs>
			<path id="SVGID_5_" d="M978.8,443.1L699.2,722.8l279.6,279.7H659.3L539.4,882.6L379.6,722.8l279.7-279.7L978.8,443.1z
				 M659.3-36.3L140,483.1l159.8,159.8l679-679.1C978.8-36.3,659.3-36.3,659.3-36.3z"/>
		</defs>
		<clipPath id="SVGID_6_">
			<use xlink:href="#SVGID_5_"  overflow="visible"/>
		</clipPath>
		<path clip-path="url(#SVGID_6_)" fill="#03569B" d="M659.3,1002.4h319.5L699.2,722.8L539.4,882.6L659.3,1002.4z"/>
	</g>
	<g>
		<defs>
			<path id="SVGID_7_" d="M978.8,443.1L699.2,722.8l279.6,279.7H659.3L539.4,882.6L379.6,722.8l279.7-279.7L978.8,443.1z
				 M659.3-36.3L140,483.1l159.8,159.8l679-679.1C978.8-36.3,659.3-36.3,659.3-36.3z"/>
		</defs>
		<clipPath id="SVGID_8_">
			<use xlink:href="#SVGID_7_"  overflow="visible"/>
		</clipPath>
		
			<linearGradient id="SVGID_9_" gradientUnits="userSpaceOnUse" x1="-1050220.625" y1="1263066.375" x2="-1050214.125" y2="1263059.875" gradientTransform="matrix(0.0388 0 0 -0.0388 -21220.377 -12549.2959)">
			<stop  offset="0" style="stop-color:#1A237E;stop-opacity:0.4"/>
			<stop  offset="1" style="stop-color:#1A237E;stop-opacity:0"/>
		</linearGradient>
		<path clip-path="url(#SVGID_8_)" fill="url(#SVGID_9_)" d="M699.2,722.8L539.4,882.6l237-82.1L699.2,722.8z"/>
	</g>
	<g>
		<defs>
			<path id="SVGID_10_" d="M978.8,443.1L699.2,722.8l279.6,279.7H659.3L539.4,882.6L379.6,722.8l279.7-279.7L978.8,443.1z
				 M659.3-36.3L140,483.1l159.8,159.8l679-679.1C978.8-36.3,659.3-36.3,659.3-36.3z"/>
		</defs>
		<clipPath id="SVGID_11_">
			<use xlink:href="#SVGID_10_"  overflow="visible"/>
		</clipPath>
		<g clip-path="url(#SVGID_11_)">
			<path fill="#16B9FD" d="M379.7,722.7l159.8-159.8l159.8,159.8L539.5,882.6L379.7,722.7z"/>
		</g>
	</g>
	
		<radialGradient id="SVGID_12_" cx="570849.75" cy="-343942.25" r="470.3599" gradientTransform="matrix(0.0388 0 0 -0.0388 -21220.377 -12549.2959)" gradientUnits="userSpaceOnUse">
		<stop  offset="0" style="stop-color:#FFFFFF;stop-opacity:0.1"/>
		<stop  offset="1" style="stop-color:#FFFFFF;stop-opacity:0"/>
	</radialGradient>
	<path fill="url(#SVGID_12_)" d="M978.8,443.1L699.2,722.8l279.6,279.7H659.3L539.4,882.6L379.6,722.8l279.7-279.7L978.8,443.1z
		 M1179.9,482.3l-519.3,519.3l159.8,159.8l679-679.1L1179.9,482.3z"/>
</g>
<path fill="#03569B" d="M26.7,45.5l20.2-20.2h12.4L32.9,51.7L26.7,45.5z"/>
<path fill="#03569B" d="M25.1,47.04l6.15-6.15l6.15,6.15l-6.15,6.15L25.1,47.04z"/>
<path fill="none" d="M64.9,7.8h135v38.1h-135L64.9,7.8z"/>
<g enable-background="new    ">
	<path fill="#39CEFD" d="M83,28.2h-9.4v8.7h10.5v2.6H70.4V15.3h13.1v2.6h-10v7.7H83V28.2z"/>
	<path fill="#39CEFD" d="M97.7,39.6l-0.3-2.2h-0.1c-1,1.4-2.8,2.6-5.3,2.6c-3.5,0-5.3-2.5-5.3-5c0-4.2,3.7-6.5,10.5-6.5v-0.4
		c0-1.4-0.4-4-4-4c-1.6,0-3.3,0.5-4.5,1.3L88,23.3c1.4-0.9,3.5-1.5,5.7-1.5c5.3,0,6.6,3.6,6.6,7.1v6.5c0,1.5,0.1,3,0.3,4.2
		L97.7,39.6z M97.2,30.7c-3.5-0.1-7.4,0.5-7.4,3.9c0,2.1,1.4,3,3,3c2.3,0,3.7-1.4,4.2-2.9c0.1-0.3,0.2-0.7,0.2-1L97.2,30.7z"/>
	<path fill="#39CEFD" d="M105,36.3c0.9,0.6,2.6,1.3,4.2,1.3c2.3,0,3.4-1.2,3.4-2.6c0-1.5-0.9-2.3-3.2-3.2c-3.1-1.1-4.6-2.8-4.6-4.9
		c0-2.8,2.3-5.1,6-5.1c1.8,0,3.3,0.5,4.3,1.1l-0.8,2.3c-0.7-0.4-1.9-1-3.6-1c-1.9,0-2.9,1.1-2.9,2.4c0,1.4,1,2.1,3.3,3
		c3,1.2,4.6,2.7,4.6,5.3c0,3.1-2.4,5.2-6.5,5.2c-1.9,0-3.7-0.5-4.9-1.2L105,36.3z"/>
	<path fill="#39CEFD" d="M120.8,22.2l3.8,10.3c0.4,1.2,0.8,2.5,1.1,3.6h0.1c0.3-1,0.7-2.4,1.1-3.6l3.5-10.2h3.3L129,34.6
		c-2.3,6-3.8,9-6,10.9c-1.5,1.4-3.1,1.9-3.9,2.1l-0.8-2.7c0.8-0.3,1.8-0.8,2.8-1.5c0.9-0.7,1.9-1.9,2.7-3.5c0.1-0.3,0.3-0.6,0.3-0.8
		s-0.1-0.4-0.2-0.8l-6.4-16.1L120.8,22.2z"/>
</g>
<g enable-background="new    ">
	<path fill="#03569B" d="M136.5,15.6c1.5-0.3,3.5-0.5,6-0.5c3.1,0,5.4,0.7,6.8,2c1.3,1.2,2.1,2.9,2.1,5.1s-0.6,3.9-1.9,5.2
		c-1.7,1.8-4.4,2.7-7.4,2.7c-0.9,0-1.8,0-2.5-0.2v9.7h-3.1L136.5,15.6z M139.6,27.3c0.7,0.2,1.5,0.3,2.6,0.3c3.8,0,6.1-1.8,6.1-5.2
		c0-3.2-2.3-4.8-5.7-4.8c-1.4,0-2.4,0.1-3,0.3L139.6,27.3z"/>
	<path fill="#03569B" d="M164.2,39.6l-0.3-2.2h-0.1c-1,1.4-2.8,2.6-5.3,2.6c-3.5,0-5.3-2.5-5.3-5c0-4.2,3.7-6.5,10.5-6.5v-0.4
		c0-1.4-0.4-4-4-4c-1.6,0-3.3,0.5-4.5,1.3l-0.7-2.1c1.4-0.9,3.5-1.5,5.7-1.5c5.3,0,6.6,3.6,6.6,7.1v6.5c0,1.5,0.1,3,0.3,4.2
		L164.2,39.6z M163.8,30.7c-3.5-0.1-7.4,0.5-7.4,3.9c0,2.1,1.4,3,3,3c2.3,0,3.7-1.4,4.2-2.9c0.1-0.3,0.2-0.7,0.2-1V30.7z"/>
	<path fill="#03569B" d="M171.5,36.3c0.9,0.6,2.6,1.3,4.2,1.3c2.3,0,3.4-1.2,3.4-2.6c0-1.5-0.9-2.3-3.2-3.2
		c-3.1-1.1-4.6-2.8-4.6-4.9c0-2.8,2.3-5.1,6-5.1c1.8,0,3.3,0.5,4.3,1.1l-0.8,2.3c-0.7-0.4-1.9-1-3.6-1c-1.9,0-2.9,1.1-2.9,2.4
		c0,1.4,1,2.1,3.3,3c3,1.2,4.6,2.7,4.6,5.3c0,3.1-2.4,5.2-6.5,5.2c-1.9,0-3.7-0.5-4.9-1.2L171.5,36.3z"/>
	<path fill="#03569B" d="M185.8,36.3c0.9,0.6,2.6,1.3,4.2,1.3c2.3,0,3.4-1.2,3.4-2.6c0-1.5-0.9-2.3-3.2-3.2
		c-3.1-1.1-4.6-2.8-4.6-4.9c0-2.8,2.3-5.1,6-5.1c1.8,0,3.3,0.5,4.3,1.1l-0.8,2.3c-0.7-0.4-1.9-1-3.6-1c-1.9,0-2.9,1.1-2.9,2.4
		c0,1.4,1,2.1,3.3,3c3,1.2,4.6,2.7,4.6,5.3c0,3.1-2.4,5.2-6.5,5.2c-1.9,0-3.7-0.5-4.9-1.2L185.8,36.3z"/>
</g>
</svg>
